<mxfile host="65bd71144e">
    <diagram id="PpByEvLd66YJH6JZbUZA" name="페이지-1">
        <mxGraphModel dx="1194" dy="827" grid="1" gridSize="10" guides="1" tooltips="1" connect="1" arrows="1" fold="1" page="1" pageScale="1" pageWidth="827" pageHeight="1169" math="0" shadow="0">
            <root>
                <mxCell id="0"/>
                <mxCell id="1" parent="0"/>
                <mxCell id="5" value="" style="edgeStyle=none;html=1;" parent="1" source="3" target="4" edge="1">
                    <mxGeometry relative="1" as="geometry"/>
                </mxCell>
                <mxCell id="3" value="메인 화면&lt;br&gt;(랜덤 명언 띄우기)" style="rounded=0;whiteSpace=wrap;html=1;" parent="1" vertex="1">
                    <mxGeometry x="136" y="110" width="196" height="80" as="geometry"/>
                </mxCell>
                <mxCell id="7" value="" style="edgeStyle=none;html=1;" parent="1" source="4" target="6" edge="1">
                    <mxGeometry relative="1" as="geometry"/>
                </mxCell>
                <mxCell id="12" style="edgeStyle=none;html=1;" parent="1" source="4" target="11" edge="1">
                    <mxGeometry relative="1" as="geometry"/>
                </mxCell>
                <mxCell id="31" style="edgeStyle=none;html=1;entryX=0.5;entryY=0;entryDx=0;entryDy=0;" edge="1" parent="1" source="4" target="30">
                    <mxGeometry relative="1" as="geometry"/>
                </mxCell>
                <mxCell id="4" value="명언 목록" style="rounded=0;whiteSpace=wrap;html=1;" parent="1" vertex="1">
                    <mxGeometry x="174" y="230" width="120" height="60" as="geometry"/>
                </mxCell>
                <mxCell id="6" value="명언 수정" style="rounded=0;whiteSpace=wrap;html=1;" parent="1" vertex="1">
                    <mxGeometry x="54" y="350" width="120" height="60" as="geometry"/>
                </mxCell>
                <mxCell id="11" value="명언 제거" style="rounded=0;whiteSpace=wrap;html=1;" parent="1" vertex="1">
                    <mxGeometry x="294" y="350" width="120" height="60" as="geometry"/>
                </mxCell>
                <mxCell id="13" value="예외 상황 1. 명언 목록의 길이가 0일 때" style="text;html=1;align=center;verticalAlign=middle;resizable=0;points=[];autosize=1;strokeColor=none;fillColor=none;" parent="1" vertex="1">
                    <mxGeometry x="520" y="50" width="210" height="30" as="geometry"/>
                </mxCell>
                <mxCell id="14" value="사이트맵" style="text;html=1;align=center;verticalAlign=middle;resizable=0;points=[];autosize=1;strokeColor=none;fillColor=none;" parent="1" vertex="1">
                    <mxGeometry x="199" y="50" width="70" height="30" as="geometry"/>
                </mxCell>
                <mxCell id="17" value="" style="edgeStyle=none;html=1;" parent="1" source="15" target="16" edge="1">
                    <mxGeometry relative="1" as="geometry"/>
                </mxCell>
                <mxCell id="20" value="" style="edgeStyle=none;html=1;" parent="1" source="15" target="19" edge="1">
                    <mxGeometry relative="1" as="geometry"/>
                </mxCell>
                <mxCell id="15" value="명언 목록의 길이가 0일때" style="rhombus;whiteSpace=wrap;html=1;" parent="1" vertex="1">
                    <mxGeometry x="640" y="100" width="177.5" height="100" as="geometry"/>
                </mxCell>
                <mxCell id="16" value="메인 화면에서&lt;br&gt;랜덤 명언 출력" style="rounded=0;whiteSpace=wrap;html=1;" parent="1" vertex="1">
                    <mxGeometry x="460" y="120" width="120" height="60" as="geometry"/>
                </mxCell>
                <mxCell id="18" value="N" style="text;html=1;align=center;verticalAlign=middle;resizable=0;points=[];autosize=1;strokeColor=none;fillColor=none;" parent="1" vertex="1">
                    <mxGeometry x="600" y="110" width="30" height="30" as="geometry"/>
                </mxCell>
                <mxCell id="19" value="명언이 없습니다." style="whiteSpace=wrap;html=1;" parent="1" vertex="1">
                    <mxGeometry x="668.75" y="300" width="120" height="60" as="geometry"/>
                </mxCell>
                <mxCell id="21" value="Y" style="text;html=1;align=center;verticalAlign=middle;resizable=0;points=[];autosize=1;strokeColor=none;fillColor=none;" parent="1" vertex="1">
                    <mxGeometry x="750" y="230" width="30" height="30" as="geometry"/>
                </mxCell>
                <mxCell id="22" value="예외 상황 2. 네트워크 연결 오류로 인하여 명언을 가져오지 못함." style="text;html=1;align=center;verticalAlign=middle;resizable=0;points=[];autosize=1;strokeColor=none;fillColor=none;" parent="1" vertex="1">
                    <mxGeometry x="460" y="420" width="330" height="30" as="geometry"/>
                </mxCell>
                <mxCell id="23" value="" style="edgeStyle=none;html=1;" parent="1" source="25" target="26" edge="1">
                    <mxGeometry relative="1" as="geometry"/>
                </mxCell>
                <mxCell id="24" value="" style="edgeStyle=none;html=1;" parent="1" source="25" target="28" edge="1">
                    <mxGeometry relative="1" as="geometry"/>
                </mxCell>
                <mxCell id="25" value="네트워크 오류로&lt;br&gt;명언을 못가져옴" style="rhombus;whiteSpace=wrap;html=1;" parent="1" vertex="1">
                    <mxGeometry x="626.25" y="480" width="177.5" height="100" as="geometry"/>
                </mxCell>
                <mxCell id="26" value="메인 화면에서&lt;br&gt;랜덤 명언 출력" style="rounded=0;whiteSpace=wrap;html=1;" parent="1" vertex="1">
                    <mxGeometry x="446.25" y="500" width="120" height="60" as="geometry"/>
                </mxCell>
                <mxCell id="27" value="N" style="text;html=1;align=center;verticalAlign=middle;resizable=0;points=[];autosize=1;strokeColor=none;fillColor=none;" parent="1" vertex="1">
                    <mxGeometry x="586.25" y="490" width="30" height="30" as="geometry"/>
                </mxCell>
                <mxCell id="28" value="메인 화면에서&lt;br&gt;네트워크를 불러오지&lt;br&gt;못했습니다." style="whiteSpace=wrap;html=1;" parent="1" vertex="1">
                    <mxGeometry x="655" y="680" width="120" height="60" as="geometry"/>
                </mxCell>
                <mxCell id="29" value="Y" style="text;html=1;align=center;verticalAlign=middle;resizable=0;points=[];autosize=1;strokeColor=none;fillColor=none;" parent="1" vertex="1">
                    <mxGeometry x="736.25" y="610" width="30" height="30" as="geometry"/>
                </mxCell>
                <mxCell id="30" value="명언 추가" style="rounded=0;whiteSpace=wrap;html=1;" vertex="1" parent="1">
                    <mxGeometry x="174" y="460" width="120" height="60" as="geometry"/>
                </mxCell>
            </root>
        </mxGraphModel>
    </diagram>
</mxfile>